<?xml version="1.0" encoding="UTF-8" standalone="no"?>
<svg
   xmlns:dc="http://purl.org/dc/elements/1.1/"
   xmlns:cc="http://creativecommons.org/ns#"
   xmlns:rdf="http://www.w3.org/1999/02/22-rdf-syntax-ns#"
   xmlns:svg="http://www.w3.org/2000/svg"
   xmlns="http://www.w3.org/2000/svg"
   viewBox="0 0 1600 1600"
   height="60"
   width="60"
   xml:space="preserve"
   id="svg2"
   version="1.1"><metadata
     id="metadata8"><rdf:RDF><cc:Work
         rdf:about=""><dc:format>image/svg+xml</dc:format><dc:type
           rdf:resource="http://purl.org/dc/dcmitype/StillImage" /></cc:Work></rdf:RDF></metadata><defs
     id="defs6"><clipPath
       id="clipPath18"
       clipPathUnits="userSpaceOnUse"><path
         id="path16"
         d="M 0,1200 H 1200 V 0 H 0 Z" /></clipPath></defs><g
     transform="matrix(1.3333333,0,0,-1.3333333,0,1600)"
     id="g10"><g
       id="g12"><g
         clip-path="url(#clipPath18)"
         id="g14"><g
           transform="translate(586.1286,506.6329)"
           id="g20"><path
             id="path22"
             style="fill:#FF3366;fill-opacity:1;fill-rule:nonzero;stroke:none"
             d="m 0,0 c -126.042,0 -228.219,102.564 -228.219,229.082 0,126.519 102.177,229.083 228.219,229.083 126.042,0 228.219,-102.564 228.219,-229.083 C 228.219,102.564 126.042,0 0,0 m 316.871,236.297 c 0,175.666 -141.868,318.07 -316.871,318.07 -175.003,0 -316.871,-142.404 -316.871,-318.07 0,-49.327 11.192,-96.027 31.161,-137.69 l -0.001,0.001 0.002,-0.002 c 7.082,-14.777 15.278,-28.913 24.461,-42.315 L 0,-395.633 272.181,73.411 c 1.139,1.914 2.255,3.842 3.355,5.782 l 0.003,0.006 v 0 c 7.867,13.876 14.742,28.392 20.49,43.472 13.452,35.29 20.842,73.589 20.842,113.626" /></g><g
           transform="translate(710.1218,772.3924)"
           id="g24"><path
             id="path26"
             style="fill:#FF3366;fill-opacity:1;fill-rule:nonzero;stroke:none"
             d="m 0,0 h -89.12 v 89.113 c 0,15.814 -12.987,28.752 -28.861,28.752 h -12.025 c -15.873,0 -28.861,-12.938 -28.861,-28.752 V 0 h -92.713 c -15.814,0 -28.752,-12.987 -28.752,-28.861 v -12.025 c 0,-15.873 12.938,-28.861 28.752,-28.861 h 92.713 v -92.72 c 0,-15.814 12.988,-28.752 28.861,-28.752 h 12.025 c 15.874,0 28.861,12.938 28.861,28.752 v 92.72 H 0 c 15.814,0 28.752,12.988 28.752,28.861 v 12.025 C 28.752,-12.987 15.814,0 0,0" /></g></g></g></g></svg>